# xmcd
#
# Track frame offsets:
#  150
#  18466
#  35678
#  51016
#  66604
#  82858
#  104483
#  122218
#  141858
#  167649
#
# Disc length: 2532 seconds
#
# Revision: 0
# Processed by: cddbd v1.5.1PL2 Copyright (c) Steve Scherf et al.
# Submitted via: Collectorz.com Music Collector 6.9
#
DISCID=8b09e20a
DTITLE=Jake Kellen - Take Me Home
DYEAR=1900
DGENRE=Country
TTITLE0=Red roses
TTITLE1=Collage days
TTITLE2=Bullet proof
TTITLE3=She say´s she loves me
TTITLE4=Take me home
TTITLE5=Cap gun cowboys
TTITLE6=September in Abilene
TTITLE7=Give it sometime
TTITLE8=If I could
TTITLE9=You and me
EXTD=
EXTT0=
EXTT1=
EXTT2=
EXTT3=
EXTT4=
EXTT5=
EXTT6=
EXTT7=
EXTT8=
EXTT9=
PLAYORDER=
